<?xml version="1.0" encoding="utf-8"?>
<!-- Generator: Adobe Illustrator 19.0.0, SVG Export Plug-In . SVG Version: 6.00 Build 0)  -->
<svg version="1.1" id="Layer_1" xmlns="http://www.w3.org/2000/svg" xmlns:xlink="http://www.w3.org/1999/xlink" x="0px" y="0px"
	 viewBox="0 0 49.5 52" style="enable-background:new 0 0 49.5 52;" xml:space="preserve">
<style type="text/css">
	.st0{fill-rule:evenodd;clip-rule:evenodd;fill:#FFFFFF;}
</style>
<g id="brush">
	<g id="XMLID_36_">
		<path id="XMLID_37_" class="st0" d="M43,3.5L12.2,34.2c0,0-4.5,0.8-6.5,4.3c-2.3,4-2.2,10.9-2.2,10.9s6.9,0.1,10.9-2.2
			c3.6-2.1,4.4-6.5,4.4-6.5L49.5,10L43,3.5z M13.3,44c-2.5,1.9-6.5,2.2-6.5,2.2s0.3-4.1,2.2-6.5c1.9-2.5,5.4-3.3,5.4-3.3l2.2,2.2
			C16.6,38.5,15.8,42.1,13.3,44z M16.6,34.2L43,7.8l2.2,2.2L18.8,36.4L16.6,34.2z"/>
	</g>
</g>
</svg>
