<?xml version="1.0" encoding="utf-8"?>
<!-- Generator: Adobe Illustrator 19.0.0, SVG Export Plug-In . SVG Version: 6.00 Build 0)  -->
<svg version="1.1" id="Layer_1" xmlns="http://www.w3.org/2000/svg" xmlns:xlink="http://www.w3.org/1999/xlink" x="0px" y="0px"
	 viewBox="0 0 39 46" style="enable-background:new 0 0 39 46;" xml:space="preserve">
<style type="text/css">
	.st0{fill-rule:evenodd;clip-rule:evenodd;fill:#FFFFFF;}
</style>
<g id="documents">
	<g id="XMLID_62_">
		<path id="XMLID_63_" class="st0" d="M28.1,0H10.9c0,0,0,3.9,0,9.2H0V46h28.1v-9.2c5.8,0,10.9,0,10.9,0V10.7L28.1,0z M28.1,3.9
			l7,6.9h-7V3.9z M25,42.9H3.1V12.3H14V23H25V42.9z M17.2,19.9v-6.9l7,6.9H17.2z M35.9,33.7c0,0-3.6,0-7.8,0V19.9L17.2,9.2H14
			c0-3.6,0-6.1,0-6.1H25l0,10.7h10.9V33.7z M6.2,30.7h15.6v-3.1H6.2V30.7z M6.2,36.8h15.6v-3.1H6.2V36.8z"/>
	</g>
</g>
</svg>
