<?xml version="1.0" encoding="utf-8"?>
<!-- Generator: Adobe Illustrator 19.0.0, SVG Export Plug-In . SVG Version: 6.00 Build 0)  -->
<svg version="1.1" id="Layer_1" xmlns="http://www.w3.org/2000/svg" xmlns:xlink="http://www.w3.org/1999/xlink" x="0px" y="0px"
	 viewBox="0 0 24 24" style="enable-background:new 0 0 24 24;" xml:space="preserve">
<style type="text/css">
	.st0{fill-rule:evenodd;clip-rule:evenodd;fill:#868686;}
</style>
<g id="search">
	<g id="XMLID_29_">
		<path id="XMLID_30_" class="st0" d="M16.9,15.8c1.4-1.7,2.3-3.8,2.3-6.2c0-5.3-4.3-9.6-9.6-9.6C4.3,0,0,4.3,0,9.6
			c0,5.3,4.3,9.6,9.6,9.6c2.4,0,4.5-0.9,6.2-2.3l7.1,7.1l1.1-1.1L16.9,15.8z M9.6,17.6c-4.4,0-8-3.6-8-8c0-4.4,3.6-8,8-8
			c4.4,0,8,3.6,8,8C17.6,14,14,17.6,9.6,17.6z"/>
	</g>
</g>
</svg>
